<?xml version="1.0" encoding="UTF-8"?>
<svg id="r3" xmlns="http://www.w3.org/2000/svg" viewBox="0 0 42.33 131.38">
  <defs>
    <style>
      .cls-1 {
        fill: #449e4a;
      }

      .cls-2 {
        fill: #5e488f;
      }

      .cls-3 {
        fill: #1f1e20;
      }

      .cls-4 {
        fill: #cb4c3d;
      }

      .cls-5 {
        fill: #d7aa28;
      }

      .cls-6 {
        fill: #2d90c6;
      }
    </style>
  </defs>
  <path class="cls-3" d="M0,0v111.89l21.17,19.49,21.17-19.49V0H0ZM21.17,16.37L8.68,4.87h24.97l-12.48,11.49ZM4.87,7.99l13.85,12.76v101.76l-13.85-12.76V7.99ZM23.6,122.51V20.75l13.86-12.76v101.76l-13.86,12.76Z"/>
  <g>
    <polygon class="cls-5" points="37.46 17.09 23.6 29.85 23.6 36.47 37.46 23.72 37.46 17.09"/>
    <polygon class="cls-6" points="37.46 29.28 23.6 42.03 23.6 48.66 37.46 35.9 37.46 29.28"/>
    <polygon class="cls-2" points="23.6 60.85 37.46 48.09 37.46 41.46 23.6 54.22 23.6 60.85"/>
    <polygon class="cls-4" points="23.6 73.03 37.46 60.27 37.46 53.65 23.6 66.41 23.6 73.03"/>
    <polygon class="cls-1" points="23.6 85.22 37.46 72.46 37.46 65.83 23.6 78.59 23.6 85.22"/>
  </g>
</svg>