<?xml version="1.0" encoding="UTF-8"?>
<svg id="r3" xmlns="http://www.w3.org/2000/svg" viewBox="0 0 242.14 82.61">
  <defs>
    <style>
      .cls-1 {
        fill: #449e4a;
      }

      .cls-2 {
        fill: #5e488f;
      }

      .cls-3 {
        fill: #cb4c3d;
      }

      .cls-4 {
        fill: #d7aa28;
      }

      .cls-5 {
        fill: #fff;
      }

      .cls-6 {
        fill: #2d90c6;
      }
    </style>
  </defs>
  <g>
    <path class="cls-5" d="M138.89,54.4c2.42,1.61,5.27,2.27,8.3,2.31,4.49.06,8.24-3.56,8.27-8.05.03-5.24-2.36-8.39-9.62-13.23-9.81-6.48-14.07-10.83-14.07-19.16C131.76,5.81,140.46.07,150.74.07c6.39,0,10.37,1.2,13.79,1.39-.65,3.61-1.2,7.03-1.57,12.86-.28.28-1.39.37-1.67.18-.65-5.65-1.57-8.51-4.16-10.27-2.31-1.57-4.44-2.04-7.22-2.04-5.28,0-8.51,3.61-8.51,8.42,0,3.89,1.76,6.85,5.46,9.63,3.7,2.87,5.92,4.07,9.72,6.66,6.57,4.35,9.72,8.7,9.72,14.81,0,10.18-7.4,16.03-20.29,19.79-5.04,1.47-11.45,4.41-15.83,8.24-.18.16-.44-.17-.44-.41v-26.8c.19-.37,1.39-.65,1.67-.37,1.94,6.85,4.07,9.72,7.5,12.22Z"/>
    <path class="cls-5" d="M40.12,2.87C36.33.28,30.87.09,28.37.09c-5,0-10.09.09-16.29.19C7.73.37,2.45,0,.14,0-.05.18-.05,1.39.14,1.57c1.48.19,2.59.37,3.89.65,2.22.46,2.5,2.41,2.59,5.09.19,3.79.28,7.5.28,18.79,0,4.01-.01,7.64-.03,10.82-.06,3.34-.53,20.05-.53,20.05,0,.09.08.17.18.2,2.63.63,5.48,1.63,7.56,2.99,2.12,1.39,4.24,2.74,5.34,4.04.04.04.07.13.17.13s.17-.06.17-.13l-.65-22.22c-.09-5.79-.09-12.73-.09-15.87,0-11.75.09-19.81.28-21.94,0-.56.37-1.2.56-1.3.74-.37,1.94-.37,2.31-.37,7.22,0,11.57,6.57,11.66,15.46.09,6.76-1.2,10.09-4.16,12.22-1.39.83-2.87,1.3-5.18,1.3-1.11,0-2.04-.09-2.41-.18-.19.09-.37.37-.28.65.18.28.74,1.3,1.2,1.39,1.11.28,2.31.37,3.89.37,4.16,0,8.05-.93,11.94-3.33,4.16-2.59,7.5-7.68,7.5-14.53,0-6.29-2.87-10.74-6.2-12.96Z"/>
    <path class="cls-5" d="M241.99,1.46c-6.66,0-11.57.28-18.23.28,0,1.02-.93,3.52-1.76,5.55-2.78,6.66-11.48,25.64-13.98,30.36-.09.09-.28.18-.46,0-2.13-4.44-10.09-22.68-13.61-30.54-.83-1.85-1.3-3.98-1.39-5.37-11.11,0-13.05-.19-19.99-.28-.19.18-.37,1.2-.28,1.57,2.13.37,4.07.56,5.83,1.3,1.94.83,2.41,2.78,2.31,4.72-.37,7.96-2.41,32.67-3.42,39.61-.74,5-1.85,5.92-4.35,6.57-1.39.37-2.04.37-3.79.65-.19.19-.19,1.39,0,1.67,3.52,0,7.03-.28,10.55-.28,4.07,0,6.2.28,10.27.28.28-.28.37-1.48.09-1.67-2.87-.37-3.89-.56-5.28-1.02-2.31-.74-3.42-1.76-3.42-5.83,0-6.57,1.48-32.02,2.04-36.37.18-.09.09-.09.28-.19,11.2,27.77,15.27,37.39,17.21,44.7.19.09,2.41.09,3.15-.09,2.5-8.05,14.25-34.24,18.51-43.68.09,0,.28-.09.37-.09.14,4.87.22,18.71.15,28.57-.02.02-.04.04-.04.04l-.65,22.22c0,.07.07.13.17.13s.13-.09.17-.13c1.1-1.3,3.22-2.65,5.34-4.04,2.08-1.36,5.43-2.36,8.06-2.99.11-.03.18-.11.18-.2,0,0-.89-11.82-1.17-19.9-.31-10.53-.58-23.87-.46-27.96.09-2.87.37-4.07,2.78-5,1.2-.37,2.5-.74,4.81-.93.09-.28.28-1.48,0-1.67Z"/>
    <path class="cls-5" d="M96.33,47.06c-.06-.36-.48-.65-.7-.47-1.57,1.31-3.12-1.58-6.71-6.82-3.3-4.82-5.65-9.06-6.36-10.44-.09-.18-.09-.56.09-.65,5.92-2.22,10.74-6.94,10.74-13.88,0-8.7-5.55-13.42-16.29-13.42-8.33,0-12.86.19-16.94.19-3.22,0-9.54-.27-11.8-.28-.03,0-.06,0-.08.03-.14.21-.14,1.23,0,1.5.02.03.05.04.08.05,1.37.1,2.74.46,3.83.64,1.76.37,2.59,1.85,2.68,4.81.19,5,.19,9.72.19,18.51,0,5.65-.09,20.64-.28,23.42-.18,3.42-.74,4.54-2.68,5-1.01.28-1.57.28-3.39.55-.02,0-.05.01-.07.03-.23.22-.16,1.16,0,1.49.02.04.06.06.1.06,1.17-.01,4.44-.28,12.34-.28,6.7,0,10.4.27,12.99.28.04,0,.08-.02.1-.05.24-.39.32-1.3,0-1.59-.02-.02-.04-.03-.07-.03-2.37-.37-2.93-.46-4.13-.64-2.22-.46-2.68-1.2-2.87-4.81-.09-5.11-.19-12.75-.19-18.59,0-.27.22-.48.48-.48h1.46c1.39,0,2.22,1.02,2.78,2.04,1.51,2.57,7.02,11.31,12.55,19.3,4.61,6.66,11.02,15.58,11.54,16.57.18.33.54.2.6-.17v-21.85ZM77.75,27.57c-1.94,1.02-6.02,1.39-10.27,1.02-.19,0-.56-.18-.56-.46,0-18.97.09-21.56.28-22.58,0-.37.18-1.2.56-1.39,1.02-.37,1.67-.37,2.04-.37,7.68,0,11.57,6.48,11.57,14.07,0,6.2-1.48,8.61-3.61,9.72Z"/>
  </g>
  <g>
    <path class="cls-5" d="M100,1.5v69.14l13,11.96,13-11.96V1.5h-25.99ZM123.79,69.7l-10.8,9.94-10.8-9.94V3.71h21.59v65.99Z"/>
    <polygon class="cls-5" points="113 12.05 106.63 6.19 119.37 6.19 113 12.05"/>
    <polygon class="cls-5" points="104.69 7.78 111.76 14.29 111.76 74.93 104.69 68.42 104.69 7.78"/>
    <g>
      <polygon class="cls-4" points="121.31 7.78 114.24 14.29 114.24 17.67 121.31 11.16 121.31 7.78"/>
      <polygon class="cls-6" points="121.31 14 114.24 20.51 114.24 23.88 121.31 17.38 121.31 14"/>
      <polygon class="cls-2" points="114.24 30.1 121.31 23.59 121.31 20.21 114.24 26.72 114.24 30.1"/>
      <polygon class="cls-3" points="114.24 36.31 121.31 29.81 121.31 26.43 114.24 32.94 114.24 36.31"/>
      <polygon class="cls-1" points="114.24 42.53 121.31 36.02 121.31 32.64 114.24 39.15 114.24 42.53"/>
    </g>
  </g>
</svg>