<svg width="1189" height="405" viewBox="0 0 1188 405" fill="none" xmlns="http://www.w3.org/2000/svg">
<g clip-path="url(#clip0_3026_4)">
<path d="M681.454 266.706C693.317 274.619 707.289 277.833 722.16 278.04C744.19 278.351 762.623 260.589 762.727 238.577C762.865 212.901 751.141 197.42 715.52 173.68C667.379 141.923 646.49 120.601 646.49 79.7559C646.49 28.4743 689.167 0.345459 739.59 0.345459C770.924 0.345459 790.464 6.25459 807.237 7.15305C804.055 24.8459 801.323 41.6403 799.525 70.2183C798.176 71.566 792.712 72.0498 791.363 71.1168C788.181 43.4372 783.651 29.3728 770.924 20.7682C759.58 13.0622 749.136 10.7815 735.509 10.7815C709.641 10.7815 693.732 28.4743 693.732 52.0763C693.732 71.1168 702.343 85.665 720.535 99.2802C738.691 113.345 749.585 119.254 768.226 131.936C800.458 153.257 815.918 174.578 815.918 204.539C815.918 254.438 779.604 283.154 716.384 301.573C691.657 308.795 660.22 323.205 638.708 341.969C637.844 342.729 636.564 341.14 636.564 339.965V208.582C637.463 206.75 643.377 205.403 644.726 206.75C654.271 240.339 664.716 254.404 681.524 266.636L681.454 266.706Z" fill="white"/>
<path d="M196.862 14.0644C178.255 1.3477 151.453 0.449232 139.175 0.449232C114.655 0.449232 89.6853 0.898464 59.2513 1.3477C37.9129 1.83148 12.0439 0 0.700329 0C-0.233443 0.898464 -0.233443 6.80759 0.700329 7.70606C7.963 8.60452 13.4273 9.53754 19.7562 10.8852C30.6502 13.166 31.999 22.6689 32.4832 35.8349C33.3823 54.4262 33.8319 72.6028 33.8319 127.927C33.8319 147.59 33.7628 165.387 33.6936 180.971C33.3823 197.317 31.0998 279.25 31.0998 279.25C31.0998 279.699 31.4802 280.079 31.999 280.217C44.8989 283.293 58.9054 288.2 69.1078 294.869C79.5176 301.677 89.8928 308.277 95.3225 314.67C95.4955 314.877 95.703 315.326 96.1526 315.326C96.6022 315.326 96.9826 315.015 96.9826 314.67L93.8008 205.748C93.3858 177.378 93.3858 143.34 93.3858 127.927C93.3858 70.2876 93.8354 30.8242 94.7346 20.3882C94.7346 17.6583 96.5676 14.4791 97.4668 14.0299C101.098 12.1984 107.012 12.1984 108.81 12.1984C144.225 12.1984 165.563 44.4049 166.013 87.9804C166.462 121.12 160.099 137.43 145.573 147.866C138.76 151.944 131.498 154.225 120.154 154.225C114.69 154.225 110.159 153.776 108.361 153.326C107.462 153.776 106.528 155.158 107.012 156.506C107.911 157.853 110.643 162.864 112.926 163.313C118.39 164.661 124.269 165.145 131.982 165.145C152.421 165.145 171.477 160.618 190.567 148.8C211.007 136.083 227.365 111.133 227.365 77.5789C227.365 46.7201 213.289 24.9497 196.931 14.0644H196.862Z" fill="white"/>
<path d="M1187.28 7.15308C1154.6 7.15308 1130.53 8.50077 1097.81 8.50077C1097.81 13.4769 1093.28 25.7444 1089.2 35.7311C1075.58 68.3869 1032.9 161.412 1020.62 184.565C1020.17 185.014 1019.27 185.464 1018.34 184.565C1007.89 162.795 968.849 73.3975 951.591 34.8327C947.51 25.7444 945.228 15.3084 944.778 8.50077C890.273 8.50077 880.763 7.60231 846.698 7.15308C845.798 8.05154 844.865 13.0622 845.349 14.8591C855.793 16.6906 865.338 17.5891 873.95 21.2175C883.495 25.2951 885.743 34.8327 885.293 44.3702C883.46 83.3843 873.5 204.539 868.485 238.577C864.854 263.077 859.39 267.604 847.147 270.783C840.334 272.615 837.152 272.615 828.541 273.962C827.642 274.861 827.642 280.77 828.541 282.118C845.798 282.118 863.056 280.77 880.313 280.77C900.303 280.77 910.747 282.118 930.702 282.118C932.051 280.77 932.535 274.861 931.152 273.962C917.076 272.131 912.096 271.232 905.283 268.986C893.939 265.358 888.475 260.382 888.475 240.408C888.475 208.202 895.738 83.4189 898.47 62.0976C899.369 61.6484 898.92 61.6484 899.819 61.1992C954.773 197.316 974.728 244.52 984.273 280.355C985.172 280.805 996.066 280.805 999.698 279.906C1011.94 240.443 1069.63 112.031 1090.52 65.7606C1090.97 65.7606 1091.86 65.3114 1092.35 65.3114C1093.01 89.1898 1093.42 157.024 1093.07 205.403C1092.97 205.506 1092.87 205.575 1092.87 205.575L1089.69 314.497C1089.69 314.877 1090.07 315.154 1090.52 315.154C1090.97 315.154 1091.14 314.704 1091.35 314.497C1096.78 308.104 1107.15 301.504 1117.56 294.696C1127.76 288.027 1144.22 283.154 1157.12 280.044C1157.64 279.906 1158.02 279.526 1158.02 279.077C1158.02 279.077 1153.67 221.126 1152.32 181.524C1150.83 129.897 1149.48 64.5166 1150.07 44.4393C1150.52 30.3749 1151.9 24.4658 1163.7 19.9389C1169.61 18.1074 1175.94 16.3105 1187.32 15.412C1187.77 14.0643 1188.67 8.15521 1187.32 7.25675L1187.28 7.15308Z" fill="white"/>
<path d="M472.635 230.698C472.359 228.936 470.284 227.519 469.177 228.417C461.465 234.845 453.891 220.677 436.253 194.967C420.033 171.33 408.551 150.562 405.058 143.754C404.608 142.856 404.608 141.024 405.508 140.575C434.558 129.69 458.179 106.537 458.179 72.5338C458.179 29.8913 430.927 6.73854 378.255 6.73854C337.377 6.73854 315.139 7.637 295.149 7.637C279.345 7.637 248.357 6.28931 237.256 6.28931C237.117 6.28931 236.944 6.32386 236.875 6.46209C236.184 7.49878 236.184 12.4749 236.875 13.788C236.944 13.9263 237.117 13.9954 237.29 14.0299C244 14.5137 250.709 16.3106 256.104 17.1745C264.715 19.006 268.831 26.2629 269.281 40.7765C270.18 65.2769 270.18 88.4297 270.18 131.521C270.18 159.201 269.73 232.702 268.831 246.317C267.932 263.112 265.2 268.537 255.654 270.818C250.709 272.166 247.977 272.166 239.054 273.513C238.95 273.513 238.812 273.582 238.743 273.652C237.636 274.757 237.947 279.319 238.743 280.977C238.847 281.15 239.019 281.254 239.227 281.254C244.968 281.219 261.015 279.906 299.749 279.906C332.639 279.906 350.761 281.254 363.488 281.254C363.695 281.254 363.868 281.185 363.972 281.012C365.182 279.077 365.528 274.654 363.972 273.202C363.868 273.133 363.764 273.064 363.661 273.064C352.006 271.267 349.274 270.818 343.429 269.919C332.535 267.639 330.252 264.01 329.353 246.317C328.904 221.264 328.454 183.84 328.454 155.192C328.454 153.879 329.526 152.843 330.84 152.843H337.999C344.812 152.843 348.893 157.819 351.625 162.829C359.026 175.442 386.071 218.292 413.185 257.445C435.803 290.1 467.275 333.849 469.834 338.652C470.699 340.276 472.497 339.62 472.774 337.788V230.698H472.635ZM381.437 135.15C371.892 140.126 351.937 141.957 331.048 140.126C330.149 140.126 328.316 139.227 328.316 137.845C328.316 44.8196 328.765 32.1374 329.664 27.1268C329.664 25.2953 330.564 21.2176 332.397 20.3192C337.377 18.4877 340.558 18.4877 342.391 18.4877C380.088 18.4877 399.144 50.2449 399.144 87.4621C399.144 117.872 391.881 129.655 381.437 135.115V135.15Z" fill="white"/>
<path d="M490.654 7.3606V346.324L554.427 404.966L618.2 346.324V7.3606H490.654ZM607.375 341.693L554.392 390.417L501.444 341.693V18.1767H607.375V341.693Z" fill="white"/>
<path d="M554.427 59.0912L523.163 30.3403H585.657L554.427 59.0912Z" fill="white"/>
<path d="M513.652 38.1501L548.306 70.0456V367.334L513.652 335.438V38.1501Z" fill="white"/>
<path d="M595.167 38.1501L560.514 70.0456V86.6327L595.167 54.7372V38.1501Z" fill="#EEB41B"/>
<path d="M595.167 68.6289L560.514 100.524V117.077L595.167 85.1814V68.6289Z" fill="#3995D9"/>
<path d="M560.514 147.555L595.167 115.66V99.1074L560.514 131.003V147.555Z" fill="#8662D2"/>
<path d="M560.514 178.034L595.167 146.139V129.552L560.514 161.447V178.034Z" fill="#E2484B"/>
<path d="M560.514 208.513L595.167 176.583V160.03L560.514 191.926V208.513Z" fill="#4FAB33"/>
</g>
<defs>
<clipPath id="clip0_3026_4">
<rect width="1188" height="405" fill="white"/>
</clipPath>
</defs>
</svg>
